<?xml version="1.0" encoding="utf-8"?>
<!-- Generator: Adobe Illustrator 28.0.0, SVG Export Plug-In . SVG Version: 6.00 Build 0)  -->
<svg version="1.1" id="Layer_1" xmlns="http://www.w3.org/2000/svg" xmlns:xlink="http://www.w3.org/1999/xlink" x="0px" y="0px"
	 viewBox="0 0 149.17 172.24" style="enable-background:new 0 0 149.17 172.24;" xml:space="preserve">
<style type="text/css">
	.st0{fill:#585858;}
	.st1{fill:#FBC531;}
	.st2{fill:#34495E;}
</style>
<polygon class="st0" points="149.17,129.18 74.58,172.24 0,129.18 0,43.06 74.58,0 149.17,43.06 "/>
<g>
	<path class="st1" d="M44.99,86.21c-1.03,0.62-1.67,1.48-2.43,2.2c-1.55,1.49-2.1,1.51-3.59,0.05c-1.29-1.27-2.58-2.54-3.84-3.85
		c-1.16-1.2-1.16-1.78,0.01-2.97c2.47-2.5,4.97-4.98,7.45-7.47c9.23-9.23,18.46-18.46,27.69-27.69c0.23-0.23,0.45-0.45,0.68-0.68
		c1.35-1.32,1.79-1.33,3.16,0.04c4.68,4.66,9.35,9.34,14.02,14.01c7.08,7.08,14.17,14.16,21.25,21.25c1.82,1.82,1.82,2.08,0.06,3.85
		c-1.24,1.25-2.47,2.5-3.74,3.72c-1.19,1.15-1.75,1.14-2.97-0.03c-0.92-0.88-1.8-1.79-2.78-2.76c-0.44,0.66-0.28,1.26-0.28,1.81
		c-0.01,8.9-0.01,17.79-0.01,26.69c0,0.53,0.01,1.07-0.01,1.6c-0.07,3-2.02,5.11-5.01,5.4c-0.53,0.05-1.07,0.04-1.6,0.04
		c-13.69,0-27.39,0-41.08,0c-0.53,0-1.07,0.02-1.6-0.04c-2.67-0.27-4.5-1.99-5-4.62c-0.16-0.85-0.16-1.7-0.16-2.55
		c0-8.63,0-17.26-0.01-25.89C45.22,87.7,45.34,87.05,44.99,86.21z M72.49,118.78c6.98,0,13.96,0.01,20.94,0
		c2.65,0,3.6-0.92,3.6-3.53c0.01-10.28,0-20.56,0.02-30.84c0-1.03-0.3-1.82-1.03-2.56c-2.49-2.48-4.91-5.03-7.38-7.53
		c-4.87-4.92-9.77-9.82-14.65-14.73c-0.3-0.3-0.61-0.6-0.91-0.9c-0.38-0.38-0.74-0.33-1.1,0.03c-0.19,0.19-0.38,0.37-0.57,0.56
		c-7.48,7.51-14.94,15.04-22.44,22.53c-0.77,0.78-1.1,1.6-1.1,2.69c0.03,10.38-0.04,20.77,0.21,31.15c0,0.16,0,0.32,0.02,0.48
		c0.12,1.48,0.9,2.36,2.36,2.57c0.52,0.08,1.06,0.05,1.6,0.05C58.86,118.78,65.68,118.78,72.49,118.78z M72.26,55.03
		c0.58-0.01,0.88,0.1,1.12,0.32c0.4,0.35,0.79,0.72,1.16,1.09c8,8.04,15.99,16.09,23.98,24.14c1.57,1.59,3.2,3.12,4.68,4.8
		c0.88,0.99,1.1,0.96,2.07,0.05c0.39-0.36,0.76-0.75,1.13-1.13c1.23-1.25,1.23-1.25,0-2.5c-0.07-0.08-0.15-0.15-0.23-0.23
		c-10.77-10.77-21.54-21.54-32.31-32.3c-1.45-1.44-1.24-1.43-2.69,0.02C60.4,60.07,49.63,70.84,38.86,81.61
		c-0.23,0.23-0.44,0.46-0.68,0.68c-0.52,0.48-0.62,0.96-0.07,1.5c0.65,0.63,1.29,1.28,1.92,1.92c0.47,0.47,0.92,0.45,1.38-0.01
		c0.22-0.23,0.46-0.44,0.68-0.67c7.51-7.55,15.03-15.09,22.53-22.65c2.1-2.12,4.16-4.27,6.25-6.4
		C71.34,55.51,71.79,55.05,72.26,55.03z"/>
	<path class="st1" d="M49.34,59.18c0,1.6,0,3.19,0,4.79c0,0.53-0.01,1.07-0.2,1.57c-0.21,0.55-0.61,0.88-1.2,0.89
		c-0.6,0.01-1.03-0.32-1.2-0.88c-0.14-0.45-0.21-0.94-0.21-1.41c-0.01-3.94-0.01-7.87,0-11.81c0-0.37,0.05-0.74,0.11-1.11
		c0.14-0.85,0.67-1.36,1.51-1.38c2.29-0.04,4.58-0.07,6.86,0c1.07,0.03,1.6,0.55,1.64,1.6c0.08,2.18,0.05,4.36,0.02,6.54
		c-0.01,0.68-0.32,1.24-1.04,1.45c-0.8,0.23-1.48-0.31-1.53-1.35c-0.07-1.43-0.01-2.87-0.04-4.31c-0.03-1.18-0.14-1.29-1.28-1.34
		c-0.64-0.03-1.28-0.02-1.92,0c-1.33,0.04-1.49,0.17-1.51,1.47C49.32,55.67,49.35,57.43,49.34,59.18
		C49.35,59.18,49.34,59.18,49.34,59.18z"/>
	<path class="st1" d="M24.84,99.92c0,1.83-1.4,3.27-3.22,3.3c-1.76,0.03-3.28-1.47-3.3-3.23c-0.02-1.83,1.48-3.36,3.28-3.35
		C23.39,96.65,24.84,98.11,24.84,99.92z M23.39,100.02c0.04-1.05-0.77-1.91-1.79-1.93c-0.99-0.01-1.81,0.8-1.83,1.8
		c-0.02,1.01,0.75,1.84,1.75,1.88C22.5,101.82,23.35,101.01,23.39,100.02z"/>
	<g>
		<polygon class="st1" points="23.67,98.52 23.1,97.64 32.47,91.54 46.53,91.54 46.53,92.59 32.78,92.59 		"/>
	</g>
	<path class="st1" d="M119.45,89.48c0-1.8,1.38-3.22,3.17-3.24c1.73-0.03,3.23,1.44,3.25,3.18c0.02,1.8-1.46,3.3-3.23,3.29
		C120.87,92.7,119.45,91.26,119.45,89.48z M120.88,89.38c-0.03,1.03,0.76,1.88,1.76,1.89c0.97,0.01,1.78-0.78,1.8-1.77
		c0.02-1-0.73-1.81-1.72-1.85C121.75,87.61,120.91,88.4,120.88,89.38z"/>
	<g>
		<polygon class="st1" points="111.95,97.73 98.12,97.73 98.12,96.68 111.64,96.68 120.59,90.84 121.16,91.73 		"/>
	</g>
	<g>
		<polygon class="st1" points="46.97,99.58 34.54,99.58 26.3,87.64 27.17,87.04 35.09,98.53 46.97,98.53 		"/>
	</g>
	<path class="st1" d="M29.09,85.59c0,1.83-1.4,3.27-3.22,3.3c-1.76,0.03-3.28-1.47-3.3-3.23c-0.02-1.83,1.48-3.36,3.28-3.35
		C27.64,82.31,29.08,83.78,29.09,85.59z M27.63,85.68c0.04-1.05-0.77-1.91-1.79-1.93c-0.99-0.01-1.81,0.8-1.83,1.8
		c-0.02,1.01,0.75,1.84,1.75,1.88C26.74,87.48,27.6,86.68,27.63,85.68z"/>
	<g>
		<rect x="32.83" y="107.26" class="st1" width="12.39" height="1.05"/>
	</g>
	<path class="st1" d="M33.26,107.78c0,1.83-1.4,3.27-3.22,3.3c-1.76,0.03-3.28-1.47-3.3-3.23c-0.02-1.83,1.48-3.36,3.28-3.35
		C31.81,104.51,33.25,105.97,33.26,107.78z M31.8,107.88c0.04-1.05-0.77-1.91-1.79-1.93c-0.99-0.01-1.81,0.8-1.83,1.8
		c-0.02,1.01,0.75,1.84,1.75,1.88C30.91,109.68,31.77,108.87,31.8,107.88z"/>
	<g>
		<rect x="98.67" y="101.25" class="st1" width="14.51" height="1.05"/>
	</g>
	<g>
		<polygon class="st1" points="104.53,110.16 98.67,110.16 98.67,109.11 104.43,109.11 125.14,105.11 125.34,106.15 		"/>
	</g>
	<path class="st1" d="M124.43,104.51c0-1.8,1.38-3.22,3.17-3.24c1.73-0.03,3.23,1.44,3.25,3.18c0.02,1.8-1.46,3.3-3.23,3.29
		C125.86,107.73,124.44,106.29,124.43,104.51z M125.86,104.41c-0.03,1.03,0.76,1.88,1.76,1.89c0.97,0.01,1.78-0.78,1.8-1.77
		c0.02-1-0.73-1.81-1.72-1.85C126.74,102.64,125.9,103.43,125.86,104.41z"/>
	<path class="st1" d="M111.96,101.79c0-1.8,1.38-3.22,3.17-3.24c1.73-0.03,3.23,1.44,3.25,3.18c0.02,1.8-1.46,3.3-3.23,3.29
		C113.38,105,111.96,103.56,111.96,101.79z M113.38,101.69c-0.03,1.03,0.76,1.88,1.76,1.89c0.97,0.01,1.78-0.78,1.8-1.77
		c0.02-1-0.73-1.81-1.72-1.85C114.26,99.92,113.42,100.71,113.38,101.69z"/>
	<g>
		<polygon class="st1" points="118.08,114.32 105.77,106.16 98.67,106.16 98.67,105.1 106.09,105.1 118.66,113.44 		"/>
	</g>
	<path class="st1" d="M116.94,115.55c0-1.8,1.38-3.22,3.17-3.24c1.73-0.03,3.23,1.44,3.25,3.18c0.02,1.8-1.46,3.3-3.23,3.29
		C118.36,118.77,116.94,117.33,116.94,115.55z M118.37,115.45c-0.03,1.03,0.76,1.88,1.76,1.89c0.97,0.01,1.78-0.78,1.8-1.77
		c0.02-1-0.73-1.81-1.72-1.85C119.25,113.68,118.4,114.48,118.37,115.45z"/>
</g>
</svg>
